<svg width="506" height="392" viewBox="0 0 506 392" fill="none" xmlns="http://www.w3.org/2000/svg">
<g filter="url(#filter0_d)">
<path d="M278.057 81.2166L294.19 67.5438L292.379 57.4644L266.416 79.3144L300.568 102.672L294.94 71.392L291.303 74.3824L294.415 92.0144L294.62 93.176L293.642 92.5155L278.1 82.0123L277.553 81.643L278.057 81.2166Z" stroke="#FFAD4F"/>
<path d="M264.653 80.9924L252.261 91.4616L298.479 107.998L264.653 80.9924Z" fill="black" stroke="#FFAD4F"/>
<path d="M264.653 80.9924L252.261 91.4616L298.479 107.998L264.653 80.9924Z" fill="#372D41" stroke="#FFAD4F"/>
</g>
<path d="M275.138 390.887C194.378 390.887 118.536 372.299 77.248 342.386L127.439 329.548C158.261 351.869 214.858 365.741 275.138 365.741C300.739 365.741 325.33 363.37 348.282 358.73L373.201 381.454C342.405 387.735 309.415 390.887 275.138 390.887Z" stroke="#FF9D2D" stroke-width="0.7993" stroke-miterlimit="10"/>
<path d="M468.489 345.564L419.432 331.919C437.315 319.989 446.773 306.167 446.773 291.892H505.161C505.187 311.01 492.5 329.573 468.489 345.564Z" stroke="#FF9D2D" stroke-width="0.7993" stroke-miterlimit="10"/>
<path d="M275.668 358.15C364.01 358.15 435.625 327.333 435.625 289.319C435.625 251.305 364.01 220.489 275.668 220.489C187.327 220.489 115.711 251.305 115.711 289.319C115.711 327.333 187.327 358.15 275.668 358.15Z" stroke="#FF9D2D" stroke-width="0.5995" stroke-miterlimit="10"/>
<path d="M369 275.5C369 300.09 326.483 320 274 320C221.547 320 179 300.09 179 275.5C179 250.911 221.517 231 274 231C326.483 231 369 250.944 369 275.5Z" stroke="#FF9D2D" stroke-width="1.2267" stroke-miterlimit="10"/>
<path d="M274 346C346.902 346 406 319.809 406 287.5C406 255.191 346.902 229 274 229C201.098 229 142 255.191 142 287.5C142 319.809 201.098 346 274 346Z" stroke="#FF9D2D" stroke-width="1.515" stroke-miterlimit="10" stroke-dasharray="2.27 2.27"/>
<path d="M264.974 199L266.487 212.872" stroke="#FF9D2D" stroke-width="1.2267" stroke-miterlimit="10"/>
<path d="M241.518 200.034L246.537 213.755" stroke="#FF9D2D" stroke-width="1.2267" stroke-miterlimit="10"/>
<path d="M218.49 202.153L226.94 215.545" stroke="#FF9D2D" stroke-width="1.2267" stroke-miterlimit="10"/>
<path d="M196.119 205.331L207.897 218.269" stroke="#FF9D2D" stroke-width="1.2267" stroke-miterlimit="10"/>
<path d="M174.68 209.543L189.662 221.851" stroke="#FF9D2D" stroke-width="1.2267" stroke-miterlimit="10"/>
<path d="M154.427 214.738L172.461 226.265" stroke="#FF9D2D" stroke-width="1.2267" stroke-miterlimit="10"/>
<path d="M135.637 220.867L156.47 231.46" stroke="#FF9D2D" stroke-width="1.2267" stroke-miterlimit="10"/>
<path d="M118.486 227.828L141.866 237.388" stroke="#FF9D2D" stroke-width="1.2267" stroke-miterlimit="10"/>
<path d="M103.202 235.546L128.877 243.945" stroke="#FF9D2D" stroke-width="1.2267" stroke-miterlimit="10"/>
<path d="M89.9601 243.92L117.603 251.083" stroke="#FF9D2D" stroke-width="1.2267" stroke-miterlimit="10"/>
<path d="M78.9378 252.899L108.22 258.725" stroke="#FF9D2D" stroke-width="1.2267" stroke-miterlimit="10"/>
<path d="M70.2112 262.307L100.805 266.72" stroke="#FF9D2D" stroke-width="1.2267" stroke-miterlimit="10"/>
<path d="M63.9562 272.093L95.4835 275.044" stroke="#FF9D2D" stroke-width="1.2267" stroke-miterlimit="10"/>
<path d="M66.2009 315.727L97.4002 312.17" stroke="#FF9D2D" stroke-width="1.2267" stroke-miterlimit="10"/>
<path d="M73.4901 325.386L103.58 320.393" stroke="#FF9D2D" stroke-width="1.2267" stroke-miterlimit="10"/>
<path d="M83.1498 334.643L111.802 328.262" stroke="#FF9D2D" stroke-width="1.2267" stroke-miterlimit="10"/>
<path d="M95.1049 343.369L121.966 335.702" stroke="#FF9D2D" stroke-width="1.2267" stroke-miterlimit="10"/>
<path d="M426.318 356.964L469.573 375.553" stroke="#FF9D2D" stroke-width="0.5995" stroke-miterlimit="10"/>
<path d="M61.3582 291.917H0.195312" stroke="#FF9D2D" stroke-width="0.5995" stroke-miterlimit="10"/>
<path d="M270.548 137.945V137.128L269.748 136.965C245.772 132.071 228.551 110.983 228.546 86.5134C228.54 58.0689 251.594 35.006 280.038 35C308.482 34.994 331.545 58.0472 331.551 86.4912C331.523 110.957 314.313 132.039 290.347 136.965L289.549 137.129V137.945V194.641V195.345L290.212 195.582C292.894 196.54 295.005 198.651 295.963 201.333L296.2 201.997H296.905L301.049 201.997L301.054 201.997C303.426 201.987 305.715 202.868 307.468 204.467C311.325 207.986 311.6 213.966 308.081 217.824L307.463 218.501L308.084 219.175C311.372 222.749 311.372 228.247 308.084 231.821L307.461 232.498L308.084 233.175C311.372 236.75 311.372 242.248 308.084 245.822L307.463 246.496L308.081 247.173C309.68 248.926 310.561 251.215 310.551 253.587C310.527 258.809 306.275 263.023 301.054 263H301.049H234.546C233.165 263 232.046 261.881 232.046 260.5L232.046 225.499C232.046 225.499 232.046 225.499 232.046 225.498C232.046 224.785 232.352 224.105 232.886 223.631L232.886 223.631L264.388 195.629L264.388 195.629C264.845 195.222 265.436 194.997 266.048 194.997H269.548H270.548V193.997V137.945ZM274.048 223.746V215.997H279.048V223.748C279.048 227.2 281.847 229.998 285.298 229.998C288.75 229.998 291.549 227.199 291.549 223.748V204.497C291.549 202.011 289.534 199.996 287.049 199.996H267.378H266.997L266.713 200.249L237.382 226.322L237.046 226.62V227.069V256.999V257.999H238.046H277.178H278.618L278.115 256.65C276.901 253.39 277.634 249.724 280.009 247.181L280.641 246.505L280.015 245.822C277.101 242.649 276.728 237.897 279.11 234.308L279.65 233.494L278.849 232.935C275.846 230.838 274.053 227.409 274.048 223.746ZM275.548 193.996V194.996H276.548H283.548H284.548V193.996V138.816V137.747L283.482 137.818C283.247 137.834 283.015 137.85 282.785 137.866C281.854 137.932 280.962 137.994 280.048 137.994C279.134 137.994 278.243 137.932 277.311 137.866C277.082 137.85 276.85 137.834 276.614 137.818L275.548 137.747V138.816V193.996ZM297.549 206.997H296.549V207.997V214.997V215.997H297.549H301.049C303.534 215.997 305.549 213.982 305.549 211.497C305.549 209.012 303.534 206.997 301.049 206.997H297.549ZM297.549 220.997H296.549V221.997V223.745C296.539 225.414 296.154 227.059 295.422 228.559L294.719 229.998H296.32H301.049C303.534 229.998 305.549 227.983 305.549 225.498C305.549 223.012 303.534 220.997 301.049 220.997H297.549ZM280.047 132.994H280.048C305.731 132.994 326.55 112.174 326.55 86.4917C326.55 60.809 305.731 39.9894 280.048 39.9894C254.365 39.9894 233.546 60.809 233.546 86.4917L233.546 86.4928C233.575 112.162 254.377 132.964 280.047 132.994ZM287.049 257.999H301.049C303.535 257.999 305.549 255.984 305.549 253.499C305.549 251.014 303.534 248.999 301.049 248.999H287.049C284.563 248.999 282.548 251.014 282.548 253.499C282.548 255.984 284.563 257.999 287.049 257.999ZM305.549 239.498C305.549 237.013 303.534 234.998 301.049 234.998H287.049C284.563 234.998 282.548 237.013 282.548 239.498C282.548 241.984 284.563 243.999 287.049 243.999H301.049C303.534 243.999 305.549 241.984 305.549 239.498Z" stroke="#FF9D2D" stroke-width="2"/>
<path d="M206.544 191.329C205.172 191.329 204.059 190.135 204.059 188.662C204.059 187.189 205.172 185.994 206.544 185.994C207.917 185.994 209.03 187.189 209.03 188.662H214C213.987 185.283 211.998 182.277 209.03 181.151V177.992H204.059V181.151C200.185 182.615 198.15 187.174 199.515 191.333C200.565 194.532 203.384 196.67 206.544 196.664C207.917 196.664 209.03 197.858 209.03 199.331C209.03 200.804 207.917 201.998 206.544 201.998C205.172 201.998 204.059 200.804 204.059 199.331H199.089C199.102 202.71 201.091 205.716 204.059 206.842V210H209.03V206.842C212.904 205.377 214.939 200.819 213.574 196.66C212.524 193.461 209.705 191.323 206.544 191.329Z" fill="#FFAD4F"/>
<path d="M203.544 225.291V224.844L203.1 224.794C187.404 223.04 175.537 209.767 175.543 193.974C175.549 176.852 189.434 162.977 206.556 162.983C223.677 162.99 237.552 176.874 237.546 193.995C237.524 209.774 225.668 223.025 209.989 224.794L209.545 224.844V225.291V263.5H203.544V225.291ZM206.544 218.997H206.545C220.345 218.98 231.528 207.797 231.546 193.997V193.996C231.546 180.188 220.352 168.995 206.544 168.995C192.737 168.995 181.543 180.188 181.543 193.996C181.543 207.804 192.737 218.997 206.544 218.997Z" stroke="#FF9D2D"/>
<path d="M344.552 191.329C343.079 191.329 341.884 190.135 341.884 188.662C341.884 187.189 343.079 185.994 344.552 185.994C346.025 185.994 347.219 187.189 347.219 188.662H352.554C352.54 185.283 350.405 182.277 347.219 181.151V177.992H341.884V181.151C337.726 182.615 335.542 187.174 337.007 191.333C338.134 194.532 341.16 196.67 344.552 196.664C346.025 196.664 347.219 197.858 347.219 199.331C347.219 200.804 346.025 201.998 344.552 201.998C343.079 201.998 341.884 200.804 341.884 199.331H336.55C336.564 202.71 338.699 205.716 341.884 206.842V210H347.219V206.842C351.378 205.377 353.562 200.819 352.097 196.66C350.97 193.461 347.944 191.323 344.552 191.329Z" fill="#FFAD4F"/>
<path d="M341.552 225.292V224.846L341.109 224.795C325.498 222.999 313.699 209.808 313.65 194.094C313.596 176.973 327.431 163.05 344.552 162.995C360.265 163.045 373.455 174.844 375.251 190.454L375.748 190.397L375.251 190.454C377.207 207.463 365.004 222.838 347.995 224.795L347.552 224.846V225.292V263.5H341.552V225.292ZM369.553 193.997V193.996C369.553 180.188 358.36 168.995 344.552 168.995C330.744 168.995 319.551 180.188 319.551 193.996C319.551 207.804 330.744 218.997 344.552 218.997H344.552C358.353 218.98 369.536 207.797 369.553 193.997Z" stroke="#FF9D2D"/>
<defs>
<filter id="filter0_d" x="191.275" y="0.52536" width="169.996" height="172.954" filterUnits="userSpaceOnUse" color-interpolation-filters="sRGB">
<feFlood flood-opacity="0" result="BackgroundImageFix"/>
<feColorMatrix in="SourceAlpha" type="matrix" values="0 0 0 0 0 0 0 0 0 0 0 0 0 0 0 0 0 0 127 0"/>
<feOffset dy="4"/>
<feGaussianBlur stdDeviation="30"/>
<feColorMatrix type="matrix" values="0 0 0 0 0.160784 0 0 0 0 0.176471 0 0 0 0 0.290196 0 0 0 1 0"/>
<feBlend mode="normal" in2="BackgroundImageFix" result="effect1_dropShadow"/>
<feBlend mode="normal" in="SourceGraphic" in2="effect1_dropShadow" result="shape"/>
</filter>
</defs>
</svg>
