<svg width="100" height="124" viewBox="0 0 100 124" fill="none" xmlns="http://www.w3.org/2000/svg">
<line x1="38.4674" y1="74.8589" x2="58.6393" y2="54.687" stroke="url(#paint0_radial)" stroke-width="18" stroke-linecap="round"/>
<g filter="url(#filter0_bii)">
<path d="M71.2562 34.6581C88.4593 34.5024 101.142 49.721 99.9184 65.7015C99.4221 72.1948 97.0447 78.0328 92.5252 82.7588C87.0057 88.5223 81.3002 94.1309 75.6257 99.7772C73.5584 101.814 71.0267 102.355 68.3441 101.278C65.662 100.201 64.1293 98.0902 63.7872 95.2073C63.5574 93.3653 64.0545 91.7105 65.3953 90.3654C69.2259 86.4439 73.0566 82.5279 76.8922 78.6064C78.7682 76.646 80.6861 74.7282 82.3735 72.6498C86.2424 67.9249 86.7818 62.6588 84.1747 57.2424C81.417 51.559 76.7437 48.7889 70.3806 48.9822C66.8539 49.0567 63.9051 50.402 61.4157 52.8237C58.9996 55.1695 56.5858 57.5851 54.0952 59.8576C51.6811 62.0481 48.5389 62.2783 45.8941 60.6228C43.1704 58.9406 41.8662 55.6733 42.7478 52.6033C42.9402 51.9122 43.2826 51.1837 43.7413 50.6059C47.268 46.3789 50.9868 42.3442 55.5807 39.2693C60.3361 36.0403 65.662 34.5447 71.2562 34.6581Z" fill="white" fill-opacity="0.03"/>
</g>
<g filter="url(#filter1_bii)">
<path d="M42.4845 5.00314C51.5917 4.92142 58.3059 12.9108 57.658 21.3003C57.3952 24.7091 56.1366 27.7739 53.7441 30.255C50.8221 33.2807 47.8017 36.2251 44.7977 39.1893C43.7033 40.2583 42.3631 40.5426 40.9429 39.9772C39.523 39.4119 38.7116 38.3036 38.5305 36.7902C38.4089 35.8232 38.672 34.9544 39.3818 34.2483C41.4097 32.1896 43.4377 30.1338 45.4681 28.0751C46.4613 27.0459 47.4766 26.0391 48.3699 24.948C50.4181 22.4675 50.7036 19.7029 49.3234 16.8594C47.8635 13.8758 45.3895 12.4215 42.021 12.523C40.154 12.5621 38.5929 13.2684 37.2751 14.5397C35.996 15.7712 34.7182 17.0393 33.3997 18.2323C32.1217 19.3823 30.4583 19.5032 29.0581 18.6341C27.6162 17.7509 26.9258 16.0357 27.3925 14.424C27.4944 14.0612 27.6756 13.6788 27.9184 13.3754C29.7854 11.1563 31.7541 9.03819 34.1861 7.42391C36.7035 5.72875 39.523 4.94362 42.4845 5.00314Z" fill="white" fill-opacity="0.03"/>
</g>
<g filter="url(#filter2_bii)">
<path d="M58.4925 119.598C49.3854 119.68 42.6712 111.69 43.3191 103.301C43.5818 99.8918 44.8404 96.827 47.233 94.346C50.1549 91.3202 53.1753 88.3759 56.1793 85.4117C57.2738 84.3426 58.614 84.0583 60.0342 84.6238C61.454 85.1891 62.2654 86.2973 62.4465 87.8108C62.5682 88.7778 62.305 89.6465 61.5952 90.3527C59.5673 92.4114 57.5394 94.4672 55.5089 96.5259C54.5158 97.5551 53.5004 98.5618 52.6071 99.653C50.559 102.133 50.2735 104.898 51.6536 107.742C53.1135 110.725 55.5875 112.179 58.956 112.078C60.823 112.039 62.3841 111.333 63.702 110.061C64.981 108.83 66.2589 107.562 67.5774 106.369C68.8554 105.219 70.5188 105.098 71.9189 105.967C73.3608 106.85 74.0513 108.565 73.5845 110.177C73.4827 110.54 73.3015 110.922 73.0586 111.226C71.1916 113.445 69.2229 115.563 66.791 117.177C64.2735 118.872 61.454 119.657 58.4925 119.598Z" fill="white" fill-opacity="0.03"/>
</g>
<g filter="url(#filter3_bii)">
<path d="M28.5139 96.9567C11.6901 97.0744 -1.14274 81.8174 0.0807167 65.8754C0.577623 59.6132 2.76265 53.9236 7.01556 49.353C12.3792 43.5898 18.053 38.0932 23.6091 32.5221C24.2239 31.9059 24.9132 31.4079 25.6395 30.9468C28.3963 29.2542 31.2338 29.5277 33.765 31.639C35.951 33.481 36.9072 36.9043 35.7586 39.5124C35.336 40.515 34.5299 41.3983 33.765 42.2021C28.973 47.1208 24.1492 52.0379 19.3942 56.9558C17.4762 58.9167 15.7928 61.0272 14.9489 63.7538C12.1503 72.7108 18.9727 83.1997 29.5073 82.6641C32.9971 82.4719 35.9825 81.3196 38.51 78.899C40.9251 76.5512 43.3032 74.1732 45.8295 71.8646C48.2445 69.6736 51.1935 69.368 53.7997 70.8681C56.4825 72.3679 57.9417 75.3241 57.364 78.3996C57.1716 79.3587 56.7496 80.3982 56.1346 81.1263C52.609 85.3163 48.8534 89.35 44.2963 92.4618C39.552 95.6873 34.1824 96.9193 28.5139 96.9567Z" fill="white" fill-opacity="0.03"/>
</g>
<defs>
<filter id="filter0_bii" x="-43.5255" y="-51.3479" width="229.526" height="239.168" filterUnits="userSpaceOnUse" color-interpolation-filters="sRGB">
<feFlood flood-opacity="0" result="BackgroundImageFix"/>
<feGaussianBlur in="BackgroundImage" stdDeviation="43"/>
<feComposite in2="SourceAlpha" operator="in" result="effect1_backgroundBlur"/>
<feBlend mode="normal" in="SourceGraphic" in2="effect1_backgroundBlur" result="shape"/>
<feColorMatrix in="SourceAlpha" type="matrix" values="0 0 0 0 0 0 0 0 0 0 0 0 0 0 0 0 0 0 127 0" result="hardAlpha"/>
<feOffset dy="4"/>
<feGaussianBlur stdDeviation="2"/>
<feComposite in2="hardAlpha" operator="arithmetic" k2="-1" k3="1"/>
<feColorMatrix type="matrix" values="0 0 0 0 1 0 0 0 0 1 0 0 0 0 1 0 0 0 0.15 0"/>
<feBlend mode="normal" in2="shape" result="effect2_innerShadow"/>
<feColorMatrix in="SourceAlpha" type="matrix" values="0 0 0 0 0 0 0 0 0 0 0 0 0 0 0 0 0 0 127 0" result="hardAlpha"/>
<feOffset/>
<feGaussianBlur stdDeviation="34"/>
<feComposite in2="hardAlpha" operator="arithmetic" k2="-1" k3="1"/>
<feColorMatrix type="matrix" values="0 0 0 0 1 0 0 0 0 1 0 0 0 0 1 0 0 0 0.05 0"/>
<feBlend mode="normal" in2="effect2_innerShadow" result="effect3_innerShadow"/>
</filter>
<filter id="filter1_bii" x="-58.7522" y="-81" width="202.453" height="207.262" filterUnits="userSpaceOnUse" color-interpolation-filters="sRGB">
<feFlood flood-opacity="0" result="BackgroundImageFix"/>
<feGaussianBlur in="BackgroundImage" stdDeviation="43"/>
<feComposite in2="SourceAlpha" operator="in" result="effect1_backgroundBlur"/>
<feBlend mode="normal" in="SourceGraphic" in2="effect1_backgroundBlur" result="shape"/>
<feColorMatrix in="SourceAlpha" type="matrix" values="0 0 0 0 0 0 0 0 0 0 0 0 0 0 0 0 0 0 127 0" result="hardAlpha"/>
<feOffset dy="4"/>
<feGaussianBlur stdDeviation="2"/>
<feComposite in2="hardAlpha" operator="arithmetic" k2="-1" k3="1"/>
<feColorMatrix type="matrix" values="0 0 0 0 1 0 0 0 0 1 0 0 0 0 1 0 0 0 0.15 0"/>
<feBlend mode="normal" in2="shape" result="effect2_innerShadow"/>
<feColorMatrix in="SourceAlpha" type="matrix" values="0 0 0 0 0 0 0 0 0 0 0 0 0 0 0 0 0 0 127 0" result="hardAlpha"/>
<feOffset/>
<feGaussianBlur stdDeviation="34"/>
<feComposite in2="hardAlpha" operator="arithmetic" k2="-1" k3="1"/>
<feColorMatrix type="matrix" values="0 0 0 0 1 0 0 0 0 1 0 0 0 0 1 0 0 0 0.05 0"/>
<feBlend mode="normal" in2="effect2_innerShadow" result="effect3_innerShadow"/>
</filter>
<filter id="filter2_bii" x="-42.7241" y="-1.66089" width="202.453" height="207.262" filterUnits="userSpaceOnUse" color-interpolation-filters="sRGB">
<feFlood flood-opacity="0" result="BackgroundImageFix"/>
<feGaussianBlur in="BackgroundImage" stdDeviation="43"/>
<feComposite in2="SourceAlpha" operator="in" result="effect1_backgroundBlur"/>
<feBlend mode="normal" in="SourceGraphic" in2="effect1_backgroundBlur" result="shape"/>
<feColorMatrix in="SourceAlpha" type="matrix" values="0 0 0 0 0 0 0 0 0 0 0 0 0 0 0 0 0 0 127 0" result="hardAlpha"/>
<feOffset dy="4"/>
<feGaussianBlur stdDeviation="2"/>
<feComposite in2="hardAlpha" operator="arithmetic" k2="-1" k3="1"/>
<feColorMatrix type="matrix" values="0 0 0 0 1 0 0 0 0 1 0 0 0 0 1 0 0 0 0.15 0"/>
<feBlend mode="normal" in2="shape" result="effect2_innerShadow"/>
<feColorMatrix in="SourceAlpha" type="matrix" values="0 0 0 0 0 0 0 0 0 0 0 0 0 0 0 0 0 0 127 0" result="hardAlpha"/>
<feOffset/>
<feGaussianBlur stdDeviation="34"/>
<feComposite in2="hardAlpha" operator="arithmetic" k2="-1" k3="1"/>
<feColorMatrix type="matrix" values="0 0 0 0 1 0 0 0 0 1 0 0 0 0 1 0 0 0 0.05 0"/>
<feBlend mode="normal" in2="effect2_innerShadow" result="effect3_innerShadow"/>
</filter>
<filter id="filter3_bii" x="-86" y="-56.1565" width="229.489" height="239.114" filterUnits="userSpaceOnUse" color-interpolation-filters="sRGB">
<feFlood flood-opacity="0" result="BackgroundImageFix"/>
<feGaussianBlur in="BackgroundImage" stdDeviation="43"/>
<feComposite in2="SourceAlpha" operator="in" result="effect1_backgroundBlur"/>
<feBlend mode="normal" in="SourceGraphic" in2="effect1_backgroundBlur" result="shape"/>
<feColorMatrix in="SourceAlpha" type="matrix" values="0 0 0 0 0 0 0 0 0 0 0 0 0 0 0 0 0 0 127 0" result="hardAlpha"/>
<feOffset dy="4"/>
<feGaussianBlur stdDeviation="2"/>
<feComposite in2="hardAlpha" operator="arithmetic" k2="-1" k3="1"/>
<feColorMatrix type="matrix" values="0 0 0 0 1 0 0 0 0 1 0 0 0 0 1 0 0 0 0.15 0"/>
<feBlend mode="normal" in2="shape" result="effect2_innerShadow"/>
<feColorMatrix in="SourceAlpha" type="matrix" values="0 0 0 0 0 0 0 0 0 0 0 0 0 0 0 0 0 0 127 0" result="hardAlpha"/>
<feOffset/>
<feGaussianBlur stdDeviation="34"/>
<feComposite in2="hardAlpha" operator="arithmetic" k2="-1" k3="1"/>
<feColorMatrix type="matrix" values="0 0 0 0 1 0 0 0 0 1 0 0 0 0 1 0 0 0 0.05 0"/>
<feBlend mode="normal" in2="effect2_innerShadow" result="effect3_innerShadow"/>
</filter>
<radialGradient id="paint0_radial" cx="0" cy="0" r="1" gradientUnits="userSpaceOnUse" gradientTransform="translate(37.2562 90.0551) rotate(-110.841) scale(64.9866 28.9142)">
<stop stop-color="#FF9D2D"/>
<stop offset="1" stop-color="#8F3F88"/>
</radialGradient>
</defs>
</svg>
