<svg width="70" height="70" viewBox="0 0 70 70" fill="none" xmlns="http://www.w3.org/2000/svg">
<path opacity="0.2" d="M35 70C54.33 70 70 54.33 70 35C70 15.67 54.33 0 35 0C15.67 0 0 15.67 0 35C0 54.33 15.67 70 35 70Z" fill="#2573C2"/>
<path d="M51.8993 27.3349C51.8654 26.7684 51.6992 26.2178 51.414 25.7272C51.1612 25.2217 50.7113 24.8273 50.1855 24.6251C49.6493 24.3579 49.0553 24.2276 48.4565 24.2459H26.0199L24.4123 29.0639H44.7406L41.5304 38.9121H21.207L19.5994 43.7301H42.1421C42.8138 43.7106 43.4779 43.5826 44.1087 43.3509C44.7406 42.9919 45.4636 42.6279 46.0753 42.1224C46.6725 41.6516 47.2121 41.1119 47.683 40.5147C48.0722 39.9296 48.404 39.3082 48.6739 38.6593L51.6516 29.2964C51.9225 28.6804 52.0085 27.9989 51.8993 27.3349Z" fill="#2573C2"/>
<path d="M32.4254 31.7534H20.464L18.8563 36.2074H30.9391L32.4254 31.7534Z" fill="#2573C2"/>
</svg>
