<svg width="70" height="70" viewBox="0 0 70 70" fill="none" xmlns="http://www.w3.org/2000/svg">
<path opacity="0.2" d="M68.9483 43.4674C64.2737 62.2175 45.2818 73.6275 26.5294 68.9528C7.78583 64.2781 -3.62526 45.2863 1.05052 26.5372C5.72302 7.78487 24.7138 -3.62732 43.4607 1.04737C62.2119 5.72206 73.6219 24.7161 68.9472 43.4674H68.9483Z" fill="#F7931A"/>
<path fill-rule="evenodd" clip-rule="evenodd" d="M45.5411 30.9338C46.013 27.7744 43.6075 26.076 40.3182 24.943L41.3852 20.6633L38.7794 20.014L37.7406 24.181C37.0565 24.0104 36.3531 23.8494 35.6541 23.6898L36.7003 19.4954L34.0967 18.8462L33.029 23.1244C32.4621 22.9953 31.9056 22.8677 31.3655 22.7334L31.3684 22.7201L27.7757 21.823L27.0827 24.6054C27.0827 24.6054 29.0156 25.0484 28.9748 25.0759C30.0299 25.3393 30.2213 26.0375 30.1887 26.591L28.9733 31.4666C29.046 31.4851 29.1403 31.5118 29.2441 31.5534L28.9696 31.4851L27.2653 38.3151C27.1362 38.6356 26.8089 39.1164 26.0714 38.9339C26.0974 38.9717 24.1779 38.4612 24.1779 38.4612L22.8846 41.444L26.2755 42.2891C26.6582 42.3851 27.0364 42.4837 27.4103 42.5813L27.4104 42.5813C27.6526 42.6445 27.8931 42.7072 28.1319 42.7685L27.0538 47.0979L29.6559 47.7472L30.7244 43.4644C31.4345 43.6574 32.1245 43.8354 32.7997 44.0031L31.7357 48.2658L34.3408 48.9151L35.4189 44.5945C39.8612 45.4352 43.2023 45.0961 44.6069 41.079C45.7399 37.8439 44.5513 35.9778 42.214 34.7602C43.9161 34.3662 45.1983 33.2466 45.5403 30.9338H45.5411ZM39.5881 39.2804C38.8486 42.2496 34.2001 41.021 32.0751 40.4594C31.8848 40.4091 31.7147 40.3642 31.5695 40.3281L33 34.5933C33.1775 34.6376 33.3944 34.6862 33.64 34.7414C35.8384 35.2347 40.3437 36.2457 39.5889 39.2804H39.5881ZM34.0819 32.0802C35.855 32.5532 39.7199 33.5843 40.3932 30.8871C41.0816 28.1277 37.3233 27.296 35.4878 26.8898C35.2815 26.8442 35.0995 26.8039 34.9508 26.7668L33.6538 31.9681C33.7765 31.9987 33.9205 32.0371 34.0819 32.0802Z" fill="#F7931A"/>
</svg>
