<svg width="485" height="448" viewBox="0 0 485 448" fill="none" xmlns="http://www.w3.org/2000/svg">
<path d="M242.782 314.255C285.922 314.255 320.895 299.205 320.895 280.64C320.895 262.075 285.922 247.026 242.782 247.026C199.641 247.026 164.668 262.075 164.668 280.64C164.668 299.205 199.641 314.255 242.782 314.255Z" stroke="#FF9D2D" stroke-width="0.5995" stroke-miterlimit="10"/>
<path d="M302.722 274.217C302.722 288.467 275.896 300.005 242.782 300.005C209.687 300.005 182.841 288.467 182.841 274.217C182.841 259.968 209.667 248.429 242.782 248.429C275.896 248.429 302.722 259.987 302.722 274.217Z" stroke="#FF9D2D" stroke-width="1.2267" stroke-miterlimit="10"/>
<path d="M242.782 359.484C327.566 359.484 396.297 329.91 396.297 293.428C396.297 256.947 327.566 227.372 242.782 227.372C157.998 227.372 89.2668 256.947 89.2668 293.428C89.2668 329.91 157.998 359.484 242.782 359.484Z" stroke="#FF9D2D" stroke-width="1.5986" stroke-miterlimit="10"/>
<path d="M242.782 368.888C181.207 368.888 123.381 354.715 91.9014 331.908L130.17 322.12C153.669 339.138 196.821 349.715 242.782 349.715C262.3 349.715 281.05 347.907 298.549 344.369L317.549 361.695C294.069 366.484 268.916 368.888 242.782 368.888Z" stroke="#FF9D2D" stroke-width="0.7993" stroke-miterlimit="10"/>
<path d="M390.2 334.331L352.798 323.927C366.432 314.831 373.643 304.293 373.643 293.409H418.161C418.18 307.985 408.508 322.139 390.2 334.331Z" stroke="#FF9D2D" stroke-width="0.7993" stroke-miterlimit="10"/>
<path d="M134.246 261.948L97.3627 251.218C130.073 230.391 184.437 217.949 242.801 217.949C292.549 217.949 340.164 227.103 373.393 243.045L340.26 255.833C315.453 243.929 279.934 237.103 242.801 237.103C199.244 237.103 158.669 246.391 134.246 261.948Z" stroke="#FF9D2D" stroke-width="0.7993" stroke-miterlimit="10"/>
<path d="M242.782 328.504C294.291 328.504 336.048 310.536 336.048 288.371C336.048 266.205 294.291 248.237 242.782 248.237C191.272 248.237 149.515 266.205 149.515 288.371C149.515 310.536 191.272 328.504 242.782 328.504Z" stroke="#FF9D2D" stroke-width="1.515" stroke-miterlimit="10" stroke-dasharray="2.27 2.27"/>
<path d="M242.782 336.081C304.009 336.081 353.644 314.72 353.644 288.371C353.644 262.021 304.009 240.66 242.782 240.66C181.554 240.66 131.919 262.021 131.919 288.371C131.919 314.72 181.554 336.081 242.782 336.081Z" stroke="#FF9D2D" stroke-miterlimit="10"/>
<path d="M243.186 343.927C310.541 343.927 365.144 320.431 365.144 291.447C365.144 262.464 310.541 238.968 243.186 238.968C175.83 238.968 121.227 262.464 121.227 291.447C121.227 320.431 175.83 343.927 243.186 343.927Z" stroke="#FF9D2D" stroke-width="0.5995" stroke-miterlimit="10"/>
<path d="M242.782 398.714C351.918 398.714 440.391 360.642 440.391 313.678C440.391 266.713 351.918 228.641 242.782 228.641C133.645 228.641 45.1718 266.713 45.1718 313.678C45.1718 360.642 133.645 398.714 242.782 398.714Z" stroke="#FF9D2D" stroke-width="0.9714" stroke-miterlimit="10"/>
<path d="M242.782 428.501C363.654 428.501 461.641 386.34 461.641 334.331C461.641 282.322 363.654 240.16 242.782 240.16C121.909 240.16 23.9224 282.322 23.9224 334.331C23.9224 386.34 121.909 428.501 242.782 428.501Z" stroke="#FF9D2D" stroke-width="1.0759" stroke-miterlimit="10"/>
<path d="M242.782 447.059C376.314 447.059 484.563 400.48 484.563 343.023C484.563 285.566 376.314 238.987 242.782 238.987C109.249 238.987 1 285.566 1 343.023C1 400.48 109.249 447.059 242.782 447.059Z" stroke="#FF9D2D" stroke-width="0.5706" stroke-miterlimit="10" stroke-dasharray="2.16 2.16"/>
<path d="M242.782 387.676C345.313 387.676 428.43 351.911 428.43 307.793C428.43 263.675 345.313 227.911 242.782 227.911C140.251 227.911 57.1331 263.675 57.1331 307.793C57.1331 351.911 140.251 387.676 242.782 387.676Z" stroke="#FF9D2D" stroke-width="0.5995" stroke-miterlimit="10" stroke-dasharray="2.27 2.27"/>
<path d="M235.032 222.584L236.186 233.161" stroke="#FF9D2D" stroke-width="1.2267" stroke-miterlimit="10"/>
<path d="M217.148 223.373L220.975 233.834" stroke="#FF9D2D" stroke-width="1.2267" stroke-miterlimit="10"/>
<path d="M199.591 224.988L206.033 235.199" stroke="#FF9D2D" stroke-width="1.2267" stroke-miterlimit="10"/>
<path d="M182.533 227.411L191.514 237.276" stroke="#FF9D2D" stroke-width="1.2267" stroke-miterlimit="10"/>
<path d="M166.188 230.622L177.611 240.007" stroke="#FF9D2D" stroke-width="1.2267" stroke-miterlimit="10"/>
<path d="M150.746 234.584L164.495 243.372" stroke="#FF9D2D" stroke-width="1.2267" stroke-miterlimit="10"/>
<path d="M136.419 239.257L152.303 247.333" stroke="#FF9D2D" stroke-width="1.2267" stroke-miterlimit="10"/>
<path d="M123.343 244.564L141.169 251.852" stroke="#FF9D2D" stroke-width="1.2267" stroke-miterlimit="10"/>
<path d="M111.689 250.449L131.266 256.852" stroke="#FF9D2D" stroke-width="1.2267" stroke-miterlimit="10"/>
<path d="M101.594 256.833L122.67 262.294" stroke="#FF9D2D" stroke-width="1.2267" stroke-miterlimit="10"/>
<path d="M93.1896 263.679L115.516 268.121" stroke="#FF9D2D" stroke-width="1.2267" stroke-miterlimit="10"/>
<path d="M86.5361 270.852L109.862 274.217" stroke="#FF9D2D" stroke-width="1.2267" stroke-miterlimit="10"/>
<path d="M81.767 278.313L105.805 280.563" stroke="#FF9D2D" stroke-width="1.2267" stroke-miterlimit="10"/>
<path d="M83.4785 311.582L107.266 308.87" stroke="#FF9D2D" stroke-width="1.2267" stroke-miterlimit="10"/>
<path d="M89.0361 318.947L111.978 315.139" stroke="#FF9D2D" stroke-width="1.2267" stroke-miterlimit="10"/>
<path d="M96.4011 326.004L118.247 321.139" stroke="#FF9D2D" stroke-width="1.2267" stroke-miterlimit="10"/>
<path d="M105.516 332.658L125.997 326.812" stroke="#FF9D2D" stroke-width="1.2267" stroke-miterlimit="10"/>
<path d="M406.7 286.025L382.22 287.121" stroke="#FF9D2D" stroke-width="1.2267" stroke-miterlimit="10"/>
<path d="M403.854 278.39L379.816 280.64" stroke="#FF9D2D" stroke-width="1.2267" stroke-miterlimit="10"/>
<path d="M399.085 270.929L375.759 274.294" stroke="#FF9D2D" stroke-width="1.2267" stroke-miterlimit="10"/>
<path d="M392.47 263.737L370.124 268.179" stroke="#FF9D2D" stroke-width="1.2267" stroke-miterlimit="10"/>
<path d="M384.085 256.91L362.99 262.352" stroke="#FF9D2D" stroke-width="1.2267" stroke-miterlimit="10"/>
<path d="M358.047 343.023L391.027 357.196" stroke="#FF9D2D" stroke-width="0.5995" stroke-miterlimit="10"/>
<path d="M79.7861 293.428H33.1528" stroke="#FF9D2D" stroke-width="0.5995" stroke-miterlimit="10"/>
<g filter="url(#filter0_d)">
<path d="M227.706 137.366L270.36 101.218L265.282 72.953L195.325 131.827L287.342 194.76L271.998 109.485L261.03 118.504L269.27 165.197L269.475 166.358L268.497 165.698L227.75 138.162L227.203 137.792L227.706 137.366Z" stroke="#FFAD4F"/>
<path d="M192.027 135.11L157.955 163.896L285.033 209.363L192.027 135.11Z" fill="black" stroke="#FFAD4F"/>
<path d="M192.027 135.11L157.955 163.896L285.033 209.363L192.027 135.11Z" fill="#372D41" stroke="#FFAD4F"/>
</g>
<defs>
<filter id="filter0_d" x="96.9662" y="0.248779" width="287.808" height="274.597" filterUnits="userSpaceOnUse" color-interpolation-filters="sRGB">
<feFlood flood-opacity="0" result="BackgroundImageFix"/>
<feColorMatrix in="SourceAlpha" type="matrix" values="0 0 0 0 0 0 0 0 0 0 0 0 0 0 0 0 0 0 127 0"/>
<feOffset dy="4"/>
<feGaussianBlur stdDeviation="30"/>
<feColorMatrix type="matrix" values="0 0 0 0 0.160784 0 0 0 0 0.176471 0 0 0 0 0.290196 0 0 0 1 0"/>
<feBlend mode="normal" in2="BackgroundImageFix" result="effect1_dropShadow"/>
<feBlend mode="normal" in="SourceGraphic" in2="effect1_dropShadow" result="shape"/>
</filter>
</defs>
</svg>
